<?xml version="1.0" standalone="no"?>
<!DOCTYPE svg PUBLIC "-//W3C//DTD SVG 20010904//EN"
 "http://www.w3.org/TR/2001/REC-SVG-20010904/DTD/svg10.dtd">
<svg version="1.0" xmlns="http://www.w3.org/2000/svg"
 width="867.000000pt" height="254.000000pt" viewBox="0 0 867.000000 254.000000"
 preserveAspectRatio="xMidYMid meet">

<g transform="translate(0.000000,254.000000) scale(0.100000,-0.100000)"
 stroke="none">
<path d="M8158 2516 c-157 -6 -289 -13 -291 -16 -8 -8 -269 -2212 -263 -2217
6 -6 688 15 752 23 l42 5 12 112 c6 62 14 123 17 136 l6 24 -235 -7 -234 -7
13 106 c7 58 15 110 18 115 4 6 59 10 123 10 64 0 147 3 183 6 l67 7 11 96 c7
53 14 115 17 138 l6 42 -128 -5 c-71 -2 -155 -6 -186 -8 -57 -4 -58 -4 -58 23
0 15 29 272 65 571 36 299 65 549 65 556 0 9 60 14 230 19 127 4 232 11 235
14 3 6 35 245 35 265 0 8 -147 5 -502 -8z"/>
<path d="M7438 2493 c-72 -3 -88 -7 -92 -21 -3 -9 -98 -408 -211 -887 -114
-478 -209 -872 -211 -874 -2 -2 -4 392 -4 877 l0 882 -73 0 c-41 0 -115 -3
-165 -6 l-92 -7 0 -1107 0 -1107 103 4 c56 3 183 8 282 11 l179 7 263 1105
c144 608 263 1111 263 1118 0 12 -27 13 -242 5z"/>
<path d="M5840 2460 c-109 -9 -158 -23 -244 -68 -120 -63 -223 -185 -272 -324
-8 -24 -61 -435 -119 -923 -58 -484 -108 -898 -111 -919 l-6 -39 162 6 c97 3
166 10 170 16 3 6 19 118 34 248 15 131 32 241 38 244 9 6 370 20 375 15 2 -1
-11 -114 -27 -251 -17 -136 -29 -249 -28 -250 2 0 76 1 166 3 156 4 162 5 167
26 2 11 52 426 110 921 80 675 105 913 100 954 -11 84 -41 155 -92 211 -97
108 -224 147 -423 130z m117 -295 c44 -29 63 -74 62 -145 0 -36 -26 -279 -58
-540 l-57 -475 -49 -7 c-28 -3 -114 -8 -192 -10 -127 -3 -143 -2 -143 13 0 9
27 242 60 519 56 468 63 507 88 553 35 65 79 97 144 107 66 10 113 5 145 -15z"/>
<path d="M4878 2393 c-34 -4 -39 -8 -47 -41 -5 -20 -87 -363 -181 -762 -94
-399 -175 -734 -179 -745 -5 -11 -11 286 -15 660 -3 374 -9 724 -12 777 l-6
97 -137 -6 c-75 -3 -139 -8 -142 -12 -3 -3 -93 -357 -200 -786 l-194 -780 -3
778 -2 777 -74 0 c-40 0 -114 -3 -164 -6 l-92 -7 0 -1108 0 -1107 78 4 c42 2
142 7 222 10 l146 6 149 600 150 600 6 -134 c4 -73 7 -277 8 -453 1 -176 4
-384 8 -462 l6 -142 131 5 c72 2 172 7 221 10 l91 6 262 1106 c144 609 262
1110 262 1115 0 7 -222 7 -292 0z"/>
<path d="M3063 2331 c-83 -3 -154 -8 -156 -11 -4 -4 -267 -2186 -267 -2214 0
-9 318 -1 327 8 5 5 263 2159 263 2199 0 15 -3 26 -7 25 -5 -1 -76 -4 -160 -7z"/>
<path d="M2369 2303 l-66 -4 -6 -42 c-3 -23 -36 -302 -73 -619 -38 -318 -71
-578 -74 -578 -3 0 -61 273 -130 608 l-125 607 -152 0 c-83 0 -154 -2 -156 -5
-4 -4 -267 -2186 -267 -2214 0 -9 318 -1 327 8 3 2 38 282 78 621 41 339 75
619 77 621 2 1 57 -257 123 -574 65 -317 122 -595 127 -617 l9 -40 147 3 c81
2 151 7 155 12 8 7 267 2143 267 2198 0 21 -2 22 -97 20 -54 -1 -128 -3 -164
-5z"/>
<path d="M750 2280 c-109 -9 -158 -23 -244 -68 -120 -63 -223 -185 -272 -324
-8 -24 -61 -435 -119 -923 -58 -484 -108 -898 -111 -919 l-6 -39 162 6 c97 3
166 10 170 16 3 6 19 118 34 248 15 131 32 241 38 244 9 6 370 20 375 15 2 -1
-11 -114 -27 -251 -17 -136 -29 -249 -28 -250 2 0 76 1 166 3 156 4 162 5 167
26 2 11 52 426 110 921 80 675 105 913 100 954 -11 84 -41 155 -92 211 -97
108 -224 147 -423 130z m117 -295 c44 -29 63 -74 62 -145 0 -36 -26 -279 -58
-540 l-57 -475 -49 -7 c-28 -3 -114 -8 -192 -10 -127 -3 -143 -2 -143 13 0 9
27 242 60 519 56 468 63 507 88 553 35 65 79 97 144 107 66 10 113 5 145 -15z"/>
</g>
</svg>
