<?xml version="1.0" encoding="UTF-8"?>
<svg id="Layer_1" data-name="Layer 1" xmlns="http://www.w3.org/2000/svg" viewBox="0 0 4000 4000">
  <defs>
    <style>
      .cls-1 {
        fill: #fff;
      }

      .cls-2 {
        fill: #ffd54f;
      }

      .cls-3 {
        fill: #ff3d8e;
      }

      .cls-4 {
        fill: #b5ea24;
      }

      .cls-5 {
        fill: #102770;
      }

      .cls-6 {
        fill: #1a1a5a;
      }

      .cls-7 {
        fill: #19b5fe;
      }

      .cls-8 {
        opacity: .2;
      }

      .cls-9 {
        opacity: .6;
      }
    </style>
  </defs>
  <path class="cls-7" d="m2526.55,2394.81c-1.89,13.39-4.25,26.68-7.02,39.93-69.48,329.39-394.07,492.73-736.76,420.48-342.73-72.25-573.79-352.71-504.36-682.14.92-4.39,1.89-8.77,2.96-13.11,38.55-164.81,145.74-309.49,286.36-402.29,135.03-89.15,300.86-130.33,466.5-95.42,235.58,49.67,409.4,240.38,472.46,461.75,25.07,87.76,32.69,180.32,19.85,270.81Z"/>
  <g class="cls-8">
    <path class="cls-5" d="m2526.55,2394.81c-1.89,13.39-4.25,26.68-7.02,39.93-69.48,329.39-394.07,492.73-736.76,420.48-342.73-72.25-573.79-352.71-504.36-682.14.92-4.39,1.89-8.77,2.96-13.11,142.7,90.53,678.73,393.15,1245.18,234.84Z"/>
  </g>
  <path class="cls-5" d="m1941.95,2890.56c-53.52,0-108.18-5.72-163.01-17.28-173.31-36.54-321.61-125.85-417.59-251.48-99.25-129.92-135.12-290.63-100.99-452.53,34.64-164.31,137.78-316.45,282.96-417.4,150.87-104.9,326.57-143.14,494.73-107.7,168.17,35.45,313.47,141.37,409.15,298.25,92.07,150.97,125.01,331.79,90.37,496.11l-18.07-3.81,18.07,3.81c-34.13,161.89-131.82,294.45-275.08,373.25-94.7,52.09-204.93,78.78-320.56,78.78Zm-25.05-1222.01c-284.23,0-558.59,215.15-620.4,508.34-31.88,151.21,1.58,301.25,94.2,422.49,90.62,118.61,231.2,203.05,395.85,237.77,54.38,11.46,107.63,17,158.95,17,278.15.02,500.95-162.38,555.94-423.23,32.72-155.2,1.46-326.24-85.77-469.26-90.32-148.1-227.14-248.01-385.24-281.35-37.69-7.94-75.72-11.76-113.54-11.76Z"/>
  <path class="cls-4" d="m2547.92,3056.92c-.28,26.27-4.62,48.57-13.66,65.28-9.23,17.04-21.74,32.13-36.7,45.29-9.83,8.73-20.68,16.57-32.36,23.64-39.47,23.87-88.45,38.78-138.4,45.47-32.27,4.34-64.96,5.26-95.7,3-43.49-3.23-83.14-12.93-112.41-28.48-11.36-6-21.1-12.88-28.95-20.64-31.35-30.98-51.34-124.28-56.88-230.97-.88-16.71-1.39-33.75-1.57-50.92-.23-24.74.32-49.86,1.62-74.65,7.11-132.26,36.75-256.68,94.22-287.47,20.36-10.94,41.09-16.2,61.91-16.57,69.25-1.34,139.05,51.01,198.47,125.94,24.56,30.93,47.32,65.74,67.54,102.21,21.05,37.95,39.33,77.7,53.97,116.75,25.07,66.85,39.52,131.66,38.92,182.12Z"/>
  <g class="cls-9">
    <path class="cls-1" d="m2547.92,3056.92c-.28,26.27-4.62,48.57-13.66,65.28-9.23,17.04-21.74,32.13-36.7,45.29,56.04-219.89-203.54-525.32-308.53-637.59,69.25-1.34,139.05,51.01,198.47,125.94,24.56,30.93,47.32,65.74,67.54,102.21,21.05,37.95,39.33,77.7,53.97,116.75,25.07,66.85,39.52,131.66,38.92,182.12Z"/>
  </g>
  <g class="cls-8">
    <path class="cls-5" d="m2547.92,3043.67c-.28,26.27-4.62,48.57-13.66,65.28-15.28,28.21-39.52,51.06-69.06,68.93-39.47,23.87-88.45,38.78-138.4,45.47-77.93,10.48-158.16,1.06-208.12-25.48,18.97-3.55,37.67-8.31,56-14.36,29.13-9.6,59.05-23.78,74.74-50.14,10.94-18.33,14.73-42.1,31.95-54.75,17.59-12.97,43.17-9.33,61.54-21.19,20.31-13.11,25.53-40.58,41.5-58.72,22.02-24.93,59.92-28.11,86.79-47.69,24.56-17.91,36.1-47.64,37.9-77.19.23-3.83.14-7.99-.09-12.28,25.07,66.85,39.52,131.66,38.92,182.12Z"/>
  </g>
  <path class="cls-5" d="m2251.65,3245.12c-80.11,0-150.86-20.3-186.76-55.73-60.28-59.52-77.89-293.45-53.37-462.83,11.44-78.99,37.2-179.65,95.02-210.6,53.3-28.56,113.37-24.3,173.72,12.29,147.23,89.3,276.02,362.19,274.27,514.65-.32,30.12-5.66,54.97-15.89,73.86-16.11,29.73-41.59,55.28-75.75,75.93-39.58,23.93-89.89,40.52-145.51,47.98-22.25,3-44.33,4.45-65.73,4.45Zm-71.81-710.94c-19.36,0-38.01,4.78-55.86,14.34-34.01,18.21-61.67,85.03-75.9,183.34-24.41,168.6-2.82,386.24,42.77,431.26,36.58,36.1,129.8,53.33,221.62,40.96,50.64-6.79,96.04-21.65,131.31-42.97,28.46-17.21,49.45-38.04,62.38-61.92,7.34-13.55,11.18-32.62,11.44-56.67v-.02c1.63-141.83-122.46-401.36-256.49-482.65-28.19-17.09-55.36-25.65-81.26-25.65Z"/>
  <path class="cls-1" d="m2536.06,3042.7c-.28,26.27-4.62,48.57-13.66,65.28-15.28,28.21-39.52,51.06-69.06,68.93-39.47,23.87-88.45,38.78-138.4,45.47l-3.05-9.56s-15.83-81.11,33.65-108.81c47.09-26.36,102.21,63.52,107.43,72.2-4.71-9.51-54.24-111.35-18.42-143.44,37.21-33.24,100.13,8.96,101.52,9.93Z"/>
  <path class="cls-5" d="m2314.91,3238.54c-6.94,0-13.22-4.48-15.38-11.25l-3.05-9.56c-.19-.6-.34-1.2-.46-1.81-.74-3.78-17.4-92.97,41.62-126.01,24.86-13.91,49.84-5.37,71.22,10.51-6.08-30.72-5.14-61.73,14.9-79.68,47.39-42.33,120.83,8.21,121.56,8.73,4.37,3.06,6.95,8.07,6.89,13.41-.31,29.75-5.57,54.24-15.61,72.8-15.91,29.37-41.11,54.62-74.91,75.06-39.31,23.77-89.32,40.25-144.62,47.66-.72.1-1.44.14-2.16.14Zm48.68-123.02c-3.58,0-6.99.82-10.17,2.59-32.18,18.01-28.65,69.19-26.51,86.13,38.72-6.46,74.01-17.73,103.57-33.06-18.68-27.08-45.72-55.67-66.9-55.67Zm106.73-79.34c-9.17,0-17.96,2.34-25.01,8.65-15.81,14.16-4.85,63.48,14.73,108.31,21.26-15.32,37.42-33.05,48.15-52.85,6.55-12.1,10.39-28.43,11.44-48.61-10.5-5.83-30.69-15.49-49.3-15.49Z"/>
  <g class="cls-8">
    <path class="cls-5" d="m2387.49,2655.84c-101.8,131.43-265.64,168-354.6,178.11,7.11-132.26,36.75-256.68,94.22-287.47,88.31-47.32,183.14,11.96,260.37,109.37Z"/>
  </g>
  <path class="cls-4" d="m1701.38,2916.58c-.23,10.06-.65,20.08-1.15,29.96-5.54,106.69-25.53,199.99-56.88,230.97-7.85,7.76-17.59,14.63-28.95,20.64-49.95,26.55-130.19,35.96-208.12,25.48-49.95-6.69-98.93-21.61-138.4-45.47-29.55-17.87-53.78-40.72-69.06-68.93-9.05-16.71-13.39-39.01-13.66-65.28-.6-50.46,13.85-115.28,38.92-182.12,14.64-39.06,32.92-78.8,53.97-116.75,12.42-22.39,25.76-44.13,39.93-64.72,24.19-35.27,50.64-67.22,78.53-93.35,65.97-61.82,139.74-90.85,209.45-53.51,55.12,29.55,84.67,145.28,93.21,271.45,2.49,36.93,3.19,74.79,2.22,111.63Z"/>
  <g class="cls-9">
    <path class="cls-1" d="m1197.04,3042.7c.28,26.27,4.62,48.57,13.66,65.28,9.23,17.04,21.74,32.13,36.7,45.29-56.04-219.89,203.54-525.32,308.53-637.59-69.25-1.34-139.05,51.01-198.47,125.94-24.56,30.93-47.32,65.74-67.54,102.21-21.05,37.95-39.33,77.7-53.97,116.75-25.07,66.85-39.52,131.66-38.92,182.12Z"/>
  </g>
  <g class="cls-8">
    <path class="cls-5" d="m1185.16,3043.67c.28,26.27,4.62,48.57,13.66,65.28,15.28,28.21,39.52,51.06,69.06,68.93,39.47,23.87,88.45,38.78,138.4,45.47,77.93,10.48,158.16,1.06,208.12-25.48-18.97-3.55-37.67-8.31-56-14.36-29.13-9.6-59.05-23.78-74.74-50.14-10.94-18.33-14.73-42.1-31.95-54.75-17.59-12.97-43.17-9.33-61.54-21.19-20.31-13.11-25.53-40.58-41.5-58.72-22.02-24.93-59.92-28.11-86.79-47.69-24.56-17.91-36.1-47.64-37.9-77.19-.23-3.83-.14-7.99.09-12.28-25.07,66.85-39.52,131.66-38.92,182.12Z"/>
  </g>
  <path class="cls-5" d="m1481.43,3245.12c-21.41,0-43.48-1.45-65.74-4.45-55.6-7.45-105.92-24.04-145.5-47.97-34.15-20.65-59.64-46.2-75.74-75.93-10.22-18.88-15.57-43.74-15.89-73.86h0c-1.75-152.47,127.03-425.35,274.27-514.65,60.34-36.6,120.41-40.84,173.72-12.29,57.81,30.95,83.58,131.6,95.01,210.59,24.52,169.39,6.91,403.32-53.36,462.84-35.9,35.43-106.66,55.73-186.77,55.73Zm71.81-710.94c-25.91,0-53.07,8.56-81.26,25.65-134.03,81.29-258.12,340.82-256.49,482.65v.02c.26,24.07,4.1,43.13,11.44,56.68,12.93,23.88,33.92,44.71,62.38,61.92,35.27,21.33,80.68,36.19,131.3,42.97,91.85,12.38,185.05-4.86,221.64-40.96,45.59-45.02,67.17-262.67,42.76-431.26-14.23-98.3-41.9-165.12-75.9-183.33-17.85-9.56-36.51-14.34-55.87-14.34Z"/>
  <path class="cls-1" d="m1197.02,3042.7c.28,26.27,4.62,48.57,13.66,65.28,15.28,28.21,39.52,51.06,69.06,68.93,39.47,23.87,88.45,38.78,138.4,45.47l3.05-9.56s15.83-81.11-33.65-108.81c-47.09-26.36-102.21,63.52-107.43,72.2,4.71-9.51,54.24-111.35,18.42-143.44-37.21-33.24-100.13,8.96-101.52,9.93Z"/>
  <path class="cls-5" d="m1418.17,3238.54c-.72,0-1.44-.05-2.16-.14-55.3-7.41-105.31-23.89-144.62-47.66-33.8-20.44-59-45.69-74.91-75.06-10.05-18.55-15.3-43.05-15.62-72.8-.06-5.33,2.52-10.35,6.89-13.41.74-.52,74.18-51.06,121.55-8.74,20.05,17.95,20.98,48.98,14.91,79.7,21.39-15.89,46.36-24.44,71.23-10.51,59.02,33.03,42.36,122.23,41.62,126.01-.12.61-.28,1.22-.46,1.81l-3.04,9.56c-2.16,6.77-8.44,11.25-15.38,11.25Zm-115.58-67.36c29.57,15.32,64.86,26.59,103.57,33.05,2.14-16.91,5.68-68.11-26.51-86.13-21.97-12.31-55.23,21.41-77.07,53.07Zm-89.13-119.51c1.04,20.19,4.88,36.51,11.44,48.61,10.73,19.8,26.88,37.53,48.14,52.85,19.58-44.83,30.54-94.15,14.72-108.32-21.36-19.08-58.63-1.85-74.3,6.86Z"/>
  <g class="cls-8">
    <path class="cls-5" d="m1699.16,2804.95c-177-47.14-263.1-148.65-302.66-217.95,65.97-61.82,139.74-90.85,209.45-53.51,55.12,29.55,84.67,145.28,93.21,271.45Z"/>
  </g>
  <path class="cls-4" d="m1669.34,1841.61l-201.79,261.16s-255.25-124.65-397.67-356.12c-33.79-54.94-59.92-115.04-76.59-175.15-15.51-55.91-22.85-111.81-20.59-163.43.97-22.07,3.65-43.3,8.17-63.48,8.96-39.7,25.11-75.07,49.26-103.6,34.07-40.3,84.11-67.03,152.49-73.08,13.07-1.15,25.39-1.39,37.12-.74h.05c74.65,4.11,122.62,43.26,156.5,97.09,56.18,89.15,73.86,218.5,110.57,295.41,6.51,13.62,13.62,27.42,21.19,41.27,2.4,4.43,4.85,8.86,7.34,13.3,64.59,114.77,153.96,227.37,153.96,227.37Z"/>
  <g class="cls-9">
    <path class="cls-1" d="m1508.04,1600.95c-26.08-16.02-50.87-33.89-70.4-57.25-31.49-37.67-46.35-86.05-69.2-129.49-43.26-82.17-124.79-150.36-217.62-151.98-65.19-1.11-128.9,31.67-169.94,82.36,8.96-39.7,25.11-75.07,49.26-103.6,34.07-40.3,84.11-67.03,152.49-73.08,13.07-1.15,25.39-1.39,37.12-.74h.05c74.65,4.11,122.62,43.26,156.5,97.09,56.18,89.15,73.86,218.5,110.57,295.41,6.51,13.62,13.62,27.42,21.19,41.27Z"/>
  </g>
  <path class="cls-5" d="m1467.54,2121.24c-2.74,0-5.5-.61-8.09-1.87-10.62-5.19-261.72-129.69-405.3-363.04-67.31-109.34-104.66-239.83-99.9-349.06,3.12-72.52,24.49-134.14,61.79-178.2,39.38-46.58,94.88-73.34,164.95-79.54,13.68-1.21,26.97-1.48,39.51-.8.1,0,.2,0,.3.01,72.9,4.01,128.87,38.58,171.11,105.69,34.71,55.07,55.3,124.88,73.46,186.47,12.27,41.6,23.86,80.89,38.14,110.83,60.68,127.15,179.1,276.9,180.29,278.4,5.28,6.65,5.34,16.05.15,22.77l-201.79,261.16c-3.59,4.65-9.05,7.18-14.62,7.18Zm-260.84-935.94c-7.26,0-14.78.34-22.46,1.02-60.03,5.31-107.13,27.72-140.01,66.61-31.97,37.76-50.32,91.68-53.08,155.94-4.45,102.15,30.86,224.8,94.46,328.11,119.5,194.23,323.13,313.26,376.79,342.27l183.56-237.57c-29.29-37.98-122.45-162.28-175.78-274.04-15.55-32.58-27.54-73.24-40.23-116.28-18.34-62.19-37.31-126.49-69.29-177.24-35.85-56.95-80.87-85.07-141.66-88.48-.1,0-.19,0-.28-.01-3.91-.21-7.92-.32-12.01-.32Z"/>
  <g>
    <path class="cls-1" d="m1219.74,1167.18c-.46,6.32-8.03,103.87-69.76,125.39-62.23,21.7-117.12-48.01-119.75-51.43,2.68,3.69,53.88,76.36,30.75,119.71-23.36,43.76-86.19,47.14-88.27,47.23,2.82-65.46,21.01-124.05,57.43-167.07,34.07-40.3,84.11-67.03,152.49-73.08,13.07-1.15,25.39-1.39,37.12-.74Z"/>
    <path class="cls-1" d="m1376.28,1258.53v.04s-31.9,46.13-89.79,21.76c-55.86-23.5-66.11-107.47-66.71-113.16,74.65,3.87,122.62,40.7,156.5,91.35Z"/>
  </g>
  <g>
    <path class="cls-5" d="m972.7,1424.22c-4.27,0-8.39-1.69-11.42-4.73-3.2-3.2-4.91-7.6-4.72-12.12,3.1-72.01,24.27-133.15,61.24-176.82,38.97-46.1,93.94-72.59,163.39-78.74,13.66-1.21,26.92-1.47,39.43-.77,4.33.24,8.38,2.21,11.24,5.46,2.86,3.25,4.3,7.52,3.98,11.85-.85,11.7-10.37,115-80.55,139.47-28.44,9.92-55.17,4.09-77.39-6.94,6.53,22.52,8.31,46.96-2.69,67.56-27.73,51.96-98.81,55.63-101.82,55.76-.23,0-.47.01-.7.01Zm56.31-154.77c-21.12,32.11-34.34,72.86-38.82,119.78,17.97-3.93,44.46-13.41,56.52-36,11.7-21.94-3.91-59.29-17.7-83.78Zm22.79-28.25c16.54,17.23,54.14,49.59,92.85,36.1,38.42-13.39,52.16-66.48,56.79-94.27-5.68.12-11.5.45-17.41.97-55.2,4.88-99.61,24.1-132.23,57.19Z"/>
    <path class="cls-5" d="m1319.16,1303.53c-11.9,0-24.94-2.41-38.94-8.31-65.36-27.5-76.08-122.33-76.51-126.35-.5-4.7,1.09-9.38,4.34-12.81,3.25-3.43,7.86-5.27,12.56-5.02,71.93,3.72,127.24,35.94,169.1,98.5,1.78,2.66,2.73,5.79,2.73,8.98v.04c0,3.28-1,6.49-2.87,9.19-10.17,14.71-35.28,35.77-70.41,35.77Zm-79.65-118.2c5.92,24.99,20.43,66.3,53.24,80.1,31.34,13.18,52.46,1.14,62.91-8.14-30.82-41.62-68.29-64.87-116.15-71.96Z"/>
  </g>
  <g class="cls-8">
    <path class="cls-6" d="m1669.34,1841.61l-201.79,261.16s-255.25-124.65-397.67-356.12c-33.79-54.94-59.92-115.04-76.59-175.15.37.51.69,1.02,1.06,1.52,69.62,99.49,186.83,168.14,308.25,165.37,54.75-1.2,110.06-17.08,153.5-50.46,25.21-19.34,45.98-44.92,59.28-73.68,64.59,114.77,153.96,227.37,153.96,227.37Z"/>
    <path class="cls-5" d="m1468.23,2105.67l-1.69-.83c-2.56-1.25-257.48-127.6-398.62-356.99-33.49-54.45-60.07-115.22-76.85-175.74l-3.41-12.31,8.57,11.86c72.83,104.07,190.42,167.09,306.33,164.41,57.82-1.27,111.85-19.02,152.15-49.99,25.27-19.39,45.53-44.57,58.59-72.82l1.89-4.1,2.21,3.93c63.75,113.29,152.87,225.94,153.76,227.06l1.12,1.42-204.05,264.08Zm-469.01-521.96c16.75,55.84,41.72,111.49,72.62,161.72,134.41,218.46,372.67,343.06,395.04,354.42l199.53-258.23c-10.42-13.29-91.02-117-150.86-222.38-13.4,27.28-33.39,51.59-58.04,70.51-41.07,31.56-96.07,49.65-154.86,50.94-114.18,2.71-229.38-57.29-303.43-156.98Z"/>
  </g>
  <path class="cls-4" d="m2910.51,2628.78c-19.11,33.56-49.3,63.2-92.38,86.98-30.1,16.57-58.35,25.34-84.99,27.84-.05.05-.09.05-.09.05-53.46,5.08-100.5-14.77-143.07-46.3v-.05c-81.67-60.52-146.76-164.07-208.39-216.98-82.87-71.19-97.04-82.96-98.98-84.48l-4.15-346.38-.74-62.69c.28,0,30.84.05,81.9,10.25,75.2,15.05,194.82,52.17,327.87,143.81,58.26,40.12,110.57,89.75,152.02,143.44,20.5,26.45,38.32,53.92,52.91,81.71,14.91,28.39,26.45,57.15,34.02,85.55h.05c16.85,63.34,13.85,125.02-15.97,177.28Z"/>
  <g class="cls-9">
    <path class="cls-1" d="m2839.5,2284.24c-43.26-31.3-100.96-68.23-173.49-104.52-9,10.76-34.53,12.33-61.31,2.91-30.19-10.57-50.46-31.02-45.29-45.75.51-1.48,1.29-2.86,2.31-4.11-81.07-32.64-175.43-62.23-283.27-83.33l-.74-62.69c.28,0,30.84.05,81.9,10.25,75.2,15.05,194.82,52.17,327.87,143.81,58.26,40.12,110.57,89.75,152.02,143.44Z"/>
  </g>
  <g class="cls-8">
    <path class="cls-6" d="m2910.51,2628.78c-19.11,33.56-49.3,63.2-92.38,86.98-30.1,16.57-58.35,25.34-84.99,27.84-.05.05-.09.05-.09.05-53.46,5.08-100.5-14.77-143.07-46.3v-.05c-81.67-60.52-146.76-164.07-208.39-216.98-82.87-71.19-97.04-82.96-98.98-84.48l-4.89-409.07c.28,0,30.84.05,81.9,10.25-1.75,11.31-3.28,21.93-3.14,30.19,1.43,72.25,22.85,144.13,61.26,205.34,21.97,34.99,49.58,66.48,81.9,92.24,108.86,86.65,269.05,104.52,392.78,41.18,14.91,28.39,26.45,57.15,34.02,85.55h.05c16.85,63.34,13.85,125.02-15.97,177.28Z"/>
    <path class="cls-5" d="m2716.31,2746.75c-42.63,0-84.62-15.65-127.7-47.56l-.93-.74c-46.65-34.81-87.03-82.47-126.08-128.58-28.47-33.62-55.36-65.36-81.51-87.81-87.07-74.79-97.66-83.44-98.9-84.42l-.87-.68v-1.11s-4.93-411.41-4.93-411.41h2.34c.31,0,31.42.12,82.35,10.29l2.17.43-.34,2.18c-1.72,11.09-3.25,21.71-3.11,29.8,1.44,72.34,22.5,142.94,60.91,204.16,22.35,35.59,49.73,66.43,81.38,91.66,108.37,86.26,268.86,103.1,390.29,40.93l2.03-1.04,1.06,2.02c14.89,28.34,26.23,56.69,33.75,84.31h0l.5,1.71c17.88,67.21,12.28,129.11-16.2,179.01h0c-20.05,35.2-51.43,64.76-93.27,87.85-28.86,15.89-57.48,25.32-85.06,28.03l-.09.09-1.05.05c-5.59.53-11.18.8-16.74.8Zm-124.02-50.58c47.16,34.68,92.91,49.48,139.77,45.24l.04-.04.83-.08c27.21-2.55,55.5-11.82,84.09-27.56,41.09-22.68,71.87-51.65,91.48-86.1h0c27.65-48.45,33.22-108.59,16.15-174l-.45-1.53c-7.24-27.17-18.27-55.1-32.78-83.05-122.74,61.73-284.1,44.4-393.23-42.47-32.06-25.55-59.79-56.78-82.42-92.82-38.86-61.93-60.16-133.34-61.61-206.53-.13-7.92,1.22-17.91,2.83-28.41-41.38-8.12-69.02-9.5-76.94-9.73l4.85,405.61c3.97,3.25,21.48,17.95,98.19,83.85,26.43,22.69,53.43,54.57,82.03,88.33,39.14,46.21,79.62,94,126.24,128.54l.93.74Z"/>
  </g>
  <path class="cls-5" d="m2716.29,2762.91c-46.26,0-91.35-16.7-137.3-50.73-.32-.24-.64-.49-.95-.75-48.16-35.94-90.97-86.48-128.77-131.11-28.04-33.11-54.53-64.38-79.71-85.99-88.64-76.15-97.63-83.4-98.36-83.97-4.39-3.45-6.99-8.71-7.05-14.3l-4.89-409.07c-.06-4.93,1.86-9.69,5.33-13.2,3.47-3.51,8.2-5.49,13.13-5.49,7.83,0,194.46,1.79,420.24,157.31,121.09,83.42,215.23,205.88,245.98,319.9.14.41.27.83.39,1.26,18.99,71.4,12.85,137.51-17.78,191.18-21.54,37.81-55.01,69.44-99.49,93.99-30.75,16.93-61.39,27-91.12,29.95-.38.06-.76.11-1.14.14h0c-6.19.59-12.36.88-18.51.89Zm-114.42-79.75c43.73,32.16,85.76,45.94,128.41,42.19.38-.06.76-.11,1.14-.14,24.99-2.34,51.17-10.96,77.81-25.63,38.43-21.21,67.11-48.11,85.24-79.94,0,0,0,0,0-.01,25.55-44.77,30.55-100.82,14.48-162.18-.13-.39-.26-.79-.36-1.2-28.24-106.24-116.97-221.28-231.58-300.23-175.72-121.04-328.77-144.94-380.59-149.65l4.55,380.72c10.3,8.67,34.77,29.5,92.65,79.22,27.4,23.52,54.81,55.88,83.83,90.14,38.55,45.51,78.41,92.57,123.53,126.01.31.23.6.46.89.71Z"/>
  <g>
    <g>
      <path class="cls-1" d="m2733.05,2743.64c-53.46,5.08-100.5-14.77-143.07-46.3v-.05c.37-1.94,9.83-47.41,60.25-51.29,48.7-3.74,79.68,87.9,82.82,97.64Z"/>
      <path class="cls-5" d="m2716.43,2746.74c-42.77,0-84.76-15.65-127.82-47.55l-.93-.69v-1.16c.42-2.49,10.04-49.61,62.38-53.64,50.52-3.91,81.79,88.67,85.2,99.24l.88,2.73-2.86.27c-5.63.53-11.24.8-16.84.8Zm-123.88-50.38c46.35,34.02,91.33,48.83,137.38,45.23-5.66-16.37-35.74-96.81-79.52-93.29-44.66,3.44-55.96,40.32-57.85,48.06Z"/>
    </g>
    <g>
      <path class="cls-1" d="m2910.51,2628.78c-19.11,33.56-49.3,63.2-92.38,86.98-30.1,16.57-58.35,25.34-84.99,27.84-2.08-9.6-19.57-97.64,31.81-132.22,53.04-35.69,140.9,14.68,145.38,17.27-3.37-3-59.18-53.32-56.32-113.01,2.96-61.54,72.43-64.12,72.43-64.12h.05c16.85,63.34,13.85,125.02-15.97,177.28Z"/>
      <path class="cls-5" d="m2731.32,2746.08l-.43-2c-2.18-10.06-19.74-99.28,32.77-134.62,42.5-28.59,105.73-3.84,134.05,9.94-17.47-18.74-48.2-58.43-46.02-103.89,3.02-62.93,73.94-66.29,74.65-66.32l1.84-.07.52,1.78c17.69,66.49,12.4,127.78-15.29,177.4l15.28,13.61-17.34-10.01c-20.09,34.33-51.07,63.21-92.12,85.87-29.15,16.05-58.05,25.51-85.89,28.11l-2.04.19Zm80.21-145.26c-16.05,0-31.81,3.4-45.29,12.46-47.5,31.97-34.48,111.58-31.26,127.8,26.58-2.81,54.17-12.01,82.04-27.36,40.3-22.25,70.68-50.54,90.34-84.12-11.02-6.15-54.39-28.79-95.83-28.79Zm113.2-146.9c-10.82.84-65.83,7.8-68.43,61.82-2.56,53.41,42.39,98.91,53.6,109.39,26.39-47.94,31.51-107.03,14.82-171.21Z"/>
    </g>
  </g>
  <g>
    <path class="cls-5" d="m2716.31,2760.6c-45.76,0-90.41-16.55-135.94-50.28-4.11-3.05-6.54-7.86-6.54-12.98,0-1.02.1-2.08.29-3.08.46-2.43,12.11-59.53,74.88-64.37,59.89-4.51,93.33,89.82,99.44,108.8,1.5,4.66.81,9.75-1.88,13.84-2.69,4.09-7.09,6.74-11.97,7.2-6.11.58-12.2.87-18.27.87Zm-107.35-69.57c34.24,23.45,67.56,35.69,101.09,37.1-13.68-32.54-35.93-67.7-58.59-66.02-26.16,2.01-37.69,18.16-42.5,28.92Z"/>
    <path class="cls-5" d="m2733.13,2759.75c-7.53,0-14.16-5.25-15.78-12.74-3.88-17.94-20.26-109.44,38.58-149.04,30.8-20.72,70.1-17.33,102.44-8.32-12.14-20.91-21.85-46.75-20.51-74.79,2.9-60.4,58.81-78.41,87.97-79.5,7.51-.3,14.33,4.72,16.26,11.99,18.84,70.8,12.77,136.3-17.55,189.43h0c-21.33,37.45-54.5,68.78-98.61,93.13-30.84,16.98-61.55,26.99-91.29,29.78-.51.05-1.02.07-1.52.07Zm78.31-145.08c-13.55,0-26.58,2.78-37.47,10.11-32.64,21.96-30.66,74.7-27.43,100.62,20.73-3.89,42.12-11.87,63.8-23.8,32.95-18.19,58.82-40.54,77.11-66.59-17.54-8.3-47.85-20.34-76.01-20.34Zm102.77-145.22c-16.46,3.64-42.5,14.51-44.06,46.96-1.66,34.49,20.36,66.46,35.99,84.64,15.84-38.29,18.62-83.15,8.07-131.6Z"/>
  </g>
  <path class="cls-2" d="m2423.45,2407.05c-58.54,277.69-332.12,415.31-620.93,354.41-198.37-41.83-352.29-166.38-410.32-330.18-26.55-74.79-33.06-157.7-14.73-244.72,29.64-140.67,118.6-264.9,236.74-345.32,19.67-13.39,40.12-25.58,61.22-36.42,102.58-52.63,220.86-73.73,339.04-48.8,194.4,40.95,338.86,195.83,394.67,377.4,27.24,88.27,33.47,182.82,14.31,273.62Z"/>
  <g class="cls-9">
    <path class="cls-1" d="m1675.43,1804.82c-57.11,58.58-281.19,308.53-283.23,626.47-26.55-74.79-33.06-157.7-14.73-244.72,29.64-140.67,118.6-264.9,236.74-345.32,19.67-13.39,40.12-25.58,61.22-36.42Z"/>
  </g>
  <g class="cls-8">
    <path class="cls-5" d="m2417.79,2170.29c-.99,30.1-4.52,60.16-10.77,89.81-58.53,277.65-332.11,415.29-620.96,354.39-209.87-44.25-370.02-181.15-419.47-359.2-15.81,247.22,169.8,450.36,434.47,506.16,288.85,60.89,562.42-76.75,620.96-354.39,16.51-78.29,14.14-159.36-4.23-236.77Z"/>
  </g>
  <path class="cls-5" d="m1936.69,2791.84c-45.14,0-91.26-4.82-137.51-14.57-146.2-30.82-271.32-106.18-352.29-212.18-83.76-109.64-114.03-245.26-85.22-381.88,29.23-138.63,116.24-266.99,238.72-352.16,127.29-88.51,275.53-120.78,417.43-90.86,141.9,29.91,264.5,119.28,345.22,251.64,77.68,127.37,105.47,279.92,76.24,418.55-28.8,136.62-111.24,248.48-232.13,314.98-79.9,43.95-172.9,66.47-270.46,66.47Zm-23.12-1030.19c-101.96,0-203.92,32.79-294.73,95.94-115.8,80.52-198.01,201.63-225.55,332.29-26.83,127.27,1.33,253.55,79.28,355.6,76.28,99.86,194.65,170.94,333.28,200.17,293.9,61.96,546.99-81.84,601.81-341.92,27.54-130.66,1.23-274.65-72.21-395.06-76.04-124.68-191.21-208.79-324.3-236.85-32.28-6.81-64.93-10.17-97.58-10.17Z"/>
  <path class="cls-5" d="m1980.25,2077.4c-6.68,48.61-16.1,96.56-26.09,144.37-10.33,47.73-21.25,95.31-33.57,142.56-6.01,23.66-12.03,47.32-18.52,70.86l-9.6,35.35-10.08,35.23c-3.32,11.75-6.79,23.47-10.38,35.16-3.58,11.69-7.02,23.42-10.82,35.06-3.78,11.65-7.42,23.33-11.48,34.92-1.99,5.8-4,11.61-6.12,17.4l-3.31,8.7-1.83,4.44c-.37.84-.5,1.26-1.08,2.43-.61,1.21-1.31,2.39-2.05,3.46-1.53,2.21-4.56,2.77-6.77,1.25-1.66-1.14-2.39-3.12-2.01-4.98l.69-3.38,14.14-69.41c2.36-11.97,5.04-23.87,7.51-35.81,2.48-11.94,5.03-23.88,7.72-35.77l7.86-35.74,8.23-35.65c5.36-23.8,11.14-47.5,16.9-71.2,11.21-47.49,23.69-94.66,36.65-141.72,13.31-46.97,27.1-93.84,43.53-140.06,1-2.82,4.09-4.29,6.91-3.29,2.46.87,3.9,3.35,3.55,5.84Z"/>
  <path class="cls-5" d="m1621.55,2102.14c48.73,31,100.91,57.06,153.9,79.72,26.48,11.51,53.54,21.58,80.74,31.1,27.24,9.46,54.79,18.01,82.65,25.46,55.7,15.02,112.58,25.54,170,32.55,57.48,6.73,115.52,9.47,173.95,9.5h.02c2.98,0,5.4,2.42,5.4,5.4,0,2.73-2.03,4.98-4.65,5.34-58.44,8.13-117.9,9.78-177.11,6.24-7.41-.31-14.78-1.17-22.18-1.73-7.38-.7-14.81-1.1-22.17-2.07-14.73-1.82-29.48-3.63-44.12-6.12-14.7-2.17-29.29-5.05-43.87-7.92-14.48-3.34-29.04-6.4-43.39-10.3-57.73-14.39-113.72-35.47-167.23-61.32-26.65-13.18-52.66-27.6-77.66-43.64-24.91-16.25-49.08-33.32-71.09-53.87-2.18-2.03-2.29-5.45-.26-7.62,1.8-1.93,4.69-2.24,6.84-.87l.25.16Z"/>
  <path class="cls-5" d="m1547.88,2291.07c12.49,9.51,25.93,18.55,39.37,27.12,13.39,8.73,27.26,16.73,41.1,24.68,27.84,15.66,56.29,30.13,85.42,43.06,58.1,26.19,118.54,46.8,180.24,62.6,61.81,15.35,124.91,25.89,188.67,30.94,63.76,5.23,128.03,5.55,192.54,2.62,2.98-.15,5.51,2.15,5.65,5.13.13,2.75-1.83,5.12-4.47,5.58-64.19,11.1-129.75,15.22-195.24,13.23l-12.29-.36-12.27-.76-24.56-1.52-24.48-2.57-12.24-1.3-12.19-1.71c-32.61-3.99-64.84-10.7-96.82-18.28-32.04-7.43-63.45-17.43-94.39-28.57-15.52-5.44-30.76-11.68-45.85-18.22-15.08-6.57-30-13.49-44.69-20.87-29.28-14.97-57.71-31.59-84.8-50.18-27-18.79-52.98-38.72-76.06-62.76-2.06-2.15-1.99-5.56.16-7.62,1.94-1.87,4.92-1.99,7-.4l.22.17Z"/>
  <g class="cls-8">
    <path class="cls-5" d="m2409.15,2133.42c-23.73,1.39-47.74,2.08-72.02,2.08-321.27,0-597.94-120.68-722.91-294.26,115.05-78.44,257.74-115.28,400.26-85.22,194.4,40.95,338.86,195.83,394.67,377.4Z"/>
  </g>
  <path class="cls-4" d="m2887.11,1673.13c-170.25,349.13-575.32,454.39-927.86,282.48-352.54-171.91-519.06-555.88-348.81-905.02,170.25-349.13,612.78-531.22,965.32-359.31,352.54,171.91,481.59,632.71,311.35,981.84Z"/>
  <g class="cls-9">
    <path class="cls-1" d="m2960.44,1380.66c-13.53-253.17-149.25-496.79-384.7-611.56-79.59-38.83-163.8-59.6-248.42-64.49.05.28.09.51.14.78,4.29,33.19-60.11,68.83-143.85,79.64-76.59,9.83-142.79-4.52-156.78-32.45-176.86,67.4-330.96,200.54-416.41,375.83-39.01,80.1-60.34,162-65.74,242.78-7.25-107.24,13.16-218.41,65.74-326.3,170.26-349.1,612.8-531.23,965.32-359.31,261.25,127.37,399.75,413.41,384.7,695.07Z"/>
  </g>
  <g class="cls-8">
    <path class="cls-5" d="m2887.13,1495.16c-170.25,349.13-575.32,454.39-927.86,282.48-229.09-111.71-379.58-312.98-410.2-536.04-39.41,286.82,124.15,565.92,410.2,705.4,352.54,171.91,757.61,66.65,927.86-282.48,63-129.2,84.97-273.69,69.84-413.17-9.18,83.84-32.17,166.56-69.84,243.81Z"/>
  </g>
  <path class="cls-5" d="m2300.05,2055.49c-114.32,0-233.31-26.92-348.89-83.28-373.37-182.07-526.98-581.76-357.32-929.71,84.31-172.89,238.95-312.92,424.27-384.19,191.87-73.78,392.78-67.97,565.74,16.37,172.96,84.34,301.27,239.07,361.29,435.67,57.97,189.9,42.87,397.98-41.44,570.86l-16.6-8.09,16.6,8.09c-117.15,240.24-348.68,374.27-603.66,374.27Zm-9.45-1410.06c-266.79,0-538.38,156.55-663.56,413.26-160.44,329.03-14.14,707.49,340.31,880.32,354.45,172.84,742.73,55.05,903.17-273.98h0c80.26-164.59,94.58-362.83,39.31-543.9-56.99-186.69-178.5-333.46-342.15-413.25-87.15-42.5-181.81-62.46-277.07-62.46Z"/>
  <g>
    <path class="cls-5" d="m2339.78,1541.08c-16.39,38.55-46.67,66.94-82.5,81.9-36.84,15.28-79.64,16.39-119.25-.46-43.3-18.42-73.82-54.34-86.75-96.02-10.43-33.56-9.51-70.86,5.31-105.72,10.85-25.48,27.79-46.58,48.34-62.23,12.23,37.9,50.37,76.22,103.32,98.7,52.95,22.53,107.01,23.36,142.74,5.86,3.05,25.67-.42,52.49-11.22,77.97Z"/>
    <path class="cls-3" d="m2257.28,1622.98c-36.84,15.28-79.64,16.39-119.25-.46-43.3-18.42-73.82-54.34-86.75-96.02,19.9-10.53,42.57-16.48,66.62-16.48,68.56,0,125.8,48.47,139.37,112.97Z"/>
    <path class="cls-5" d="m2198.14,1651.02c-22.54,0-45.05-4.55-66.43-13.64-46.08-19.6-81.02-58.28-95.85-106.11-11.93-38.37-9.84-79.87,5.87-116.83,11.57-27.18,30.04-50.96,53.41-68.76,4.17-3.18,9.62-4.14,14.63-2.56,5,1.57,8.93,5.47,10.54,10.45,11.25,34.86,47.37,68.88,94.26,88.79,46.89,19.95,96.44,22.33,129.33,6.23,4.71-2.3,10.24-2.19,14.83.32,4.6,2.5,7.7,7.08,8.32,12.29,3.45,29.11-.83,58.91-12.39,86.18,0,0,0,0,0,.02-17.48,41.11-49.85,73.24-91.15,90.48-21.12,8.76-43.26,13.14-65.37,13.14Zm-99.05-265.69c-11.61,12.06-21,26.23-27.62,41.77-12.72,29.92-14.41,63.51-4.75,94.59,12.02,38.75,40.31,70.07,77.64,85.95,34.29,14.59,72.19,14.73,106.73.41,33.43-13.96,59.65-39.99,73.81-73.28h0c6.61-15.59,10.28-32.18,10.9-48.86-38.85,10.5-87.95,5.74-133.87-13.8-45.92-19.49-83.42-51.53-102.84-86.78Zm240.69,155.75h.05-.05Z"/>
  </g>
  <g>
    <ellipse class="cls-5" cx="2027.03" cy="1139.14" rx="111.86" ry="78.85" transform="translate(262.88 2653.83) rotate(-69.98)"/>
    <ellipse class="cls-1" cx="2054.84" cy="1121.66" rx="37.56" ry="23.82" transform="translate(297.59 2668.45) rotate(-69.98)"/>
  </g>
  <g>
    <ellipse class="cls-5" cx="2551.12" cy="1335.85" rx="111.86" ry="78.85" transform="translate(397.49 3247.54) rotate(-69.23)"/>
    <ellipse class="cls-1" cx="2541.49" cy="1304.45" rx="37.56" ry="23.82" transform="translate(420.63 3218.27) rotate(-69.23)"/>
  </g>
</svg>