<svg id="visual" viewBox="0 0 900 600" width="900" height="600" xmlns="http://www.w3.org/2000/svg" xmlns:xlink="http://www.w3.org/1999/xlink" version="1.1"><rect x="0" y="0" width="900" height="600" fill="#002233"></rect><path d="M0 515L21.5 509.8C43 504.7 86 494.3 128.8 476.2C171.7 458 214.3 432 257.2 428.5C300 425 343 444 385.8 440.7C428.7 437.3 471.3 411.7 514.2 402.3C557 393 600 400 642.8 410.8C685.7 421.7 728.3 436.3 771.2 435.5C814 434.7 857 418.3 878.5 410.2L900 402L900 601L878.5 601C857 601 814 601 771.2 601C728.3 601 685.7 601 642.8 601C600 601 557 601 514.2 601C471.3 601 428.7 601 385.8 601C343 601 300 601 257.2 601C214.3 601 171.7 601 128.8 601C86 601 43 601 21.5 601L0 601Z" fill="#FFFFFF" stroke-linecap="round" stroke-linejoin="miter"></path></svg>